<?xml version="1.0" encoding="UTF-8" standalone="no"?>
<!DOCTYPE svg PUBLIC "-//W3C//DTD SVG 1.1//EN" "http://www.w3.org/Graphics/SVG/1.1/DTD/svg11.dtd">
<svg width="100%" height="100%" viewBox="0 0 58 26" version="1.1" xmlns="http://www.w3.org/2000/svg" xmlns:xlink="http://www.w3.org/1999/xlink" xml:space="preserve" xmlns:serif="http://www.serif.com/" style="fill-rule:evenodd;clip-rule:evenodd;stroke-linejoin:round;stroke-miterlimit:2;">
    <g transform="matrix(0.0195088,0,0,0.0195088,29,13)">
        <g transform="matrix(1,0,0,1,-960,-540)">
            <g>
                <g>
                    <g id="XMLID_1_">
                        <g>
                            <g>
                                <g>
                                    <path d="M555.2,376.4L555.2,269.2C555.2,192.8 493.2,131.1 417.1,131.1L165.1,131.1C88.7,131.1 27,193.1 27,269.2L27,376.1C27,432.5 60.5,480.4 108.4,502.1L108.4,521.8C60.5,543.4 27,591.6 27,647.7L27,800.9C27,877.4 89,939 165.1,939L416.7,939C493.1,939 554.8,877 554.8,800.9L554.8,647.7C554.8,591.6 521.3,543.4 473.4,521.7L473.4,502C521.7,480.4 555.2,432.2 555.2,376.4ZM171.3,303.6C171.3,276 193.6,253.7 221.2,253.7L360.3,253.7C387.9,253.7 410.2,276 410.2,303.6L410.2,370.8C410.2,398.4 387.9,420.7 360.3,420.7L221.2,420.7C193.6,420.7 171.3,398.4 171.3,370.8L171.3,303.6ZM410.5,766.2C410.5,793.8 388.2,816.1 360.6,816.1L221.5,816.1C193.9,816.1 171.6,793.8 171.6,766.2L171.6,673.7C171.6,646.1 193.9,623.8 221.5,623.8L360.6,623.8C388.2,623.8 410.5,646.1 410.5,673.7L410.5,766.2Z" style="fill:white;fill-rule:nonzero;"/>
                                </g>
                            </g>
                        </g>
                    </g>
                </g>
                <g>
                    <path d="M1160.1,858.3L1355.3,858.3L1355.3,794.7L1226.3,794.7L1226.3,745.5L1330,745.5L1330,683.2L1226.3,683.2L1226.3,634L1355.3,634L1355.3,570L1160.1,570L1160.1,858.3Z" style="fill:white;fill-rule:nonzero;"/>
                    <path d="M1557.3,329.9L1489.4,329.9L1489.4,214.4L1421.9,214.4L1421.9,502.7L1489.4,502.7L1489.4,393.8L1557.3,393.8L1557.3,502.7L1624.9,502.7L1624.9,214.4L1557.3,214.4L1557.3,329.9Z" style="fill:white;fill-rule:nonzero;"/>
                    <path d="M1423.2,858.3L1618.4,858.3L1618.4,794.7L1489.4,794.7L1489.4,745.5L1593.1,745.5L1593.1,683.2L1489.4,683.2L1489.4,634L1618.4,634L1618.4,570L1423.2,570L1423.2,858.3Z" style="fill:white;fill-rule:nonzero;"/>
                    <path d="M1804.4,570L1679.4,570L1679.4,858.4L1745.7,858.4L1745.7,756L1804.1,756C1835.9,756 1889.1,737.3 1889.1,663.2C1889.3,583.4 1837.5,570 1804.4,570ZM1796.5,696.3L1746,696.3L1746,631.3L1796.5,631.3C1812.6,631.3 1824.4,636.5 1824.4,661.8C1824.4,685.8 1814.9,696.3 1796.5,696.3Z" style="fill:white;fill-rule:nonzero;"/>
                    <path d="M1255.5,392.5L1295.2,392.5C1295.2,435.1 1280.4,445.6 1252.6,445.6C1222.1,445.6 1211.3,428.2 1211.3,392.5L1211.3,306.2C1211.3,282.3 1228.7,267.8 1252.6,267.8C1280.5,267.8 1291,285.2 1291,306.2L1360.2,306.2C1360.2,257 1327.1,207.8 1252.6,207.8C1176.8,207.8 1143.7,244.9 1143.7,306.2L1143.7,392.5C1143.7,441.7 1159.8,505.3 1252.6,505.3C1341.5,505.3 1361.5,450.8 1361.5,395.1L1361.5,339.3L1255.2,339.3L1255.5,392.5Z" style="fill:white;fill-rule:nonzero;"/>
                    <path d="M780.2,684.5C748.4,679.3 740.5,664.5 740.5,655.3C740.5,636.6 753.6,627.4 776.3,627.4C801.6,627.4 808.1,643.5 808.1,652.7L871.7,652.7C871.7,619.6 849.1,563.8 775.9,563.8C694.9,563.8 673.5,616.9 673.5,656.6C673.5,703.2 710.6,732.4 765,740.3C783.7,742.9 810.3,748.2 810.3,772.1C810.3,790.8 799.8,802.6 775.9,802.6C759.8,802.6 740.1,800 740.1,764.2L673.8,764.2C673.8,800 683,862.6 776.2,862.6C867.7,862.6 878.6,797.6 878.6,771.1C878.3,715 841.2,695 780.2,684.5Z" style="fill:white;fill-rule:nonzero;"/>
                    <path d="M873,437.5L744.1,437.5L744.1,388.6L847.8,388.6L847.8,325.9L744.1,325.9L744.1,276.7L873,276.7L873,213.1L677.8,213.1L677.8,501.4L873,501.4L873,437.5Z" style="fill:white;fill-rule:nonzero;"/>
                    <path d="M1002,570L935.7,570L935.7,858.3L1099.1,858.3L1099.1,792.1L1002,792.1L1002,570Z" style="fill:white;fill-rule:nonzero;"/>
                    <path d="M1746,502.7L1814.9,502.7L1814.9,280.7L1876.2,280.7L1876.2,214.4L1683.3,214.4L1683.3,280.7L1746,280.7L1746,502.7Z" style="fill:white;fill-rule:nonzero;"/>
                    <path d="M981.9,440.1L935.7,440.1L935.7,502.7L1096.1,502.7L1096.1,440.1L1048.5,440.1L1048.5,276.7L1094.8,276.7L1094.8,214.4L934.1,214.4L934.1,276.7L981.9,276.7L981.9,440.1Z" style="fill:white;fill-rule:nonzero;"/>
                </g>
            </g>
        </g>
    </g>
</svg>
