<?xml version="1.0" encoding="UTF-8" standalone="no"?>
<svg
   xmlns:dc="http://purl.org/dc/elements/1.1/"
   xmlns:cc="http://creativecommons.org/ns#"
   xmlns:rdf="http://www.w3.org/1999/02/22-rdf-syntax-ns#"
   xmlns:svg="http://www.w3.org/2000/svg"
   xmlns="http://www.w3.org/2000/svg"
   xmlns:sodipodi="http://sodipodi.sourceforge.net/DTD/sodipodi-0.dtd"
   xmlns:inkscape="http://www.inkscape.org/namespaces/inkscape"
   width="100%"
   height="100%"
   viewBox="0 0 58 26"
   version="1.1"
   xml:space="preserve"
   style="fill-rule:evenodd;clip-rule:evenodd;stroke-linejoin:round;stroke-miterlimit:2;"
   id="svg7"
   sodipodi:docname="MF1_191217_Stack_Website_Puma_aligned.svg"
   inkscape:version="0.92.4 5da689c313, 2019-01-14"><metadata
   id="metadata13"><rdf:RDF><cc:Work
       rdf:about=""><dc:format>image/svg+xml</dc:format><dc:type
         rdf:resource="http://purl.org/dc/dcmitype/StillImage" /><dc:title></dc:title></cc:Work></rdf:RDF></metadata><defs
   id="defs11" /><sodipodi:namedview
   pagecolor="#ffffff"
   bordercolor="#666666"
   borderopacity="1"
   objecttolerance="10"
   gridtolerance="10"
   guidetolerance="10"
   inkscape:pageopacity="0"
   inkscape:pageshadow="2"
   inkscape:window-width="1848"
   inkscape:window-height="960"
   id="namedview9"
   showgrid="false"
   inkscape:pagecheckerboard="true"
   inkscape:zoom="7.8103448"
   inkscape:cx="29"
   inkscape:cy="13"
   inkscape:window-x="889"
   inkscape:window-y="18"
   inkscape:window-maximized="0"
   inkscape:current-layer="svg7" />
    <g
   transform="matrix(0.95499558,0,0,0.95499558,30.812032,12.941599)"
   id="g5">
        <g
   id="Puma"
   transform="translate(-55,-12.9)">
            <g
   id="LOGOS">
                <path
   id="XMLID_1154_"
   d="M 63.94,6.15 C 63.79,5.88 63.4,5.96 62.95,6.18 c -0.6,0.26 -1.66,1.43 -1.93,2.09 -0.23,0.95 -0.77,1.83 -1.65,2.76 -0.88,0.72 -2.44,0.44 -3.36,-0.14 -0.05,0 -3.77,-2.9 -3.77,-2.9 C 50.91,6.93 49.97,6.48 48.86,6.35 48.79,6.3 48.74,6.26 48.72,6.21 48.55,5.82 48.53,5.85 48.41,5.76 48.26,5.88 48.14,5.94 48,5.99 c 0,0 -0.06,0 -0.11,-0.03 -0.1,-0.04 -0.18,-0.12 -0.29,-0.13 -0.1,0.03 -0.19,0.23 -0.35,0.47 0,0 -0.25,0.23 -0.5,0.43 -0.07,0.08 -0.09,0.19 -0.15,0.27 -0.13,0.15 -0.28,0.36 -0.28,0.36 -0.07,0.16 -0.1,0.3 0,0.37 0,0.18 0.1,0.22 0.13,0.26 0.02,0.05 0.04,0.07 0.07,0.12 0.07,0.01 0.14,0.03 0.19,0.04 0.37,0.34 0.52,0.34 0.93,0.28 0.73,0.05 0.68,0.29 0.64,0.66 -0.04,0.05 -0.06,0.04 -0.1,0.07 -0.32,0 -0.65,-0.07 -0.99,-0.07 -0.7,0.06 -1.31,0.19 -1.26,1.05 0.04,0.31 0.66,0.78 0.97,0.16 0.05,-0.3 0.27,-0.16 0.48,-0.09 1.27,0.54 2.28,0.83 2.95,0.25 0.19,-0.25 0.32,-0.07 0.52,0.09 1.02,1.19 2.48,1.99 4.71,2.01 0.75,0.18 1.31,0.5 1.6,1.23 0.69,1.78 1.56,3.21 2.86,3.97 -0.11,1.12 -0.05,2.04 1.07,2.29 0.3,-0.24 -0.12,-0.61 0.23,-1.44 -0.03,-0.37 -0.35,-0.66 -0.44,-1.36 -1.34,-1.09 -0.77,-1.54 -0.98,-2.25 0,-1.06 -0.23,-1.86 -0.68,-2.67 -0.05,-0.12 0.04,-0.22 0.15,-0.29 0.75,-0.56 1.13,-1.1 1.32,-1.64 0.28,-0.92 0.75,-1.66 1.42,-2.21 0.55,-0.45 1.1,-0.58 1.71,-0.98 0.36,-0.6 0.31,-0.77 0.12,-1.06 z"
   style="fill:#ffffff"
   inkscape:connector-curvature="0" />
            </g>
        </g>
    </g>
</svg>