<?xml version="1.0" encoding="UTF-8" standalone="no"?>
<svg
   xmlns:dc="http://purl.org/dc/elements/1.1/"
   xmlns:cc="http://creativecommons.org/ns#"
   xmlns:rdf="http://www.w3.org/1999/02/22-rdf-syntax-ns#"
   xmlns:svg="http://www.w3.org/2000/svg"
   xmlns="http://www.w3.org/2000/svg"
   xmlns:sodipodi="http://sodipodi.sourceforge.net/DTD/sodipodi-0.dtd"
   xmlns:inkscape="http://www.inkscape.org/namespaces/inkscape"
   width="100%"
   height="100%"
   viewBox="0 0 150 80"
   version="1.1"
   xml:space="preserve"
   style="fill-rule:evenodd;clip-rule:evenodd;stroke-linejoin:round;stroke-miterlimit:2;"
   id="svg16"
   sodipodi:docname="MF1_191217_Stack_Website_AMD_aligned.svg"
   inkscape:version="0.92.4 5da689c313, 2019-01-14"><metadata
   id="metadata22"><rdf:RDF><cc:Work
       rdf:about=""><dc:format>image/svg+xml</dc:format><dc:type
         rdf:resource="http://purl.org/dc/dcmitype/StillImage" /><dc:title></dc:title></cc:Work></rdf:RDF></metadata><defs
   id="defs20" /><sodipodi:namedview
   pagecolor="#ffffff"
   bordercolor="#666666"
   borderopacity="1"
   objecttolerance="10"
   gridtolerance="10"
   guidetolerance="10"
   inkscape:pageopacity="0"
   inkscape:pageshadow="2"
   inkscape:window-width="1715"
   inkscape:window-height="968"
   id="namedview18"
   showgrid="false"
   inkscape:pagecheckerboard="true"
   inkscape:zoom="2.95"
   inkscape:cx="75"
   inkscape:cy="40"
   inkscape:window-x="183"
   inkscape:window-y="498"
   inkscape:window-maximized="0"
   inkscape:current-layer="svg16" />
    <g
   transform="matrix(1.7245483,0,0,1.7245483,68.046554,39.681964)"
   id="g14">
        <g
   id="AMD"
   transform="translate(-55,-12.9)">
            <g
   id="Isolation_Mode_1_">
                <path
   d="m 82.33,19.3 c -1.15,-1.14 -2.3,-2.29 -3.44,-3.44 -0.07,-0.07 -0.11,-0.2 -0.11,-0.3 -0.01,-1.78 0,-3.56 0,-5.35 V 9.93 H 73.16 C 73.01,9.93 72.91,9.89 72.81,9.79 71.73,8.7 70.64,7.62 69.55,6.53 69.51,6.49 69.47,6.43 69.43,6.38 h 12.9 z"
   style="fill:#ffffff;fill-rule:nonzero"
   id="path2"
   inkscape:connector-curvature="0" />
                <path
   d="m 53.96,7.27 v 11.26 h -2.81 v -7.02 c -0.1,0.11 -0.16,0.18 -0.22,0.24 -0.9,1.05 -1.81,2.1 -2.71,3.15 -0.18,0.21 -0.5,0.21 -0.67,0 -0.91,-1.06 -1.83,-2.12 -2.74,-3.18 -0.05,-0.06 -0.1,-0.11 -0.19,-0.21 v 7.02 H 41.81 V 7.27 c 0.07,0 0.14,-0.01 0.21,-0.01 h 2.03 c 0.14,0 0.24,0.04 0.33,0.15 1.11,1.29 2.23,2.58 3.35,3.87 0.05,0.05 0.09,0.1 0.15,0.17 0.48,-0.55 0.95,-1.09 1.42,-1.63 0.69,-0.8 1.39,-1.6 2.08,-2.4 0.09,-0.11 0.19,-0.15 0.33,-0.15 0.68,0.01 1.35,0 2.03,0 0.07,-0.01 0.14,-0.01 0.22,0 z"
   style="fill:#ffffff;fill-rule:nonzero"
   id="path4"
   inkscape:connector-curvature="0" />
                <path
   d="M 56.12,18.53 V 7.28 c 0.06,-0.01 0.1,-0.02 0.15,-0.02 1.82,0.01 3.64,-0.03 5.46,0.04 1.56,0.05 2.97,0.56 4.09,1.7 0.93,0.94 1.39,2.1 1.49,3.4 0.09,1.25 -0.09,2.45 -0.75,3.54 -0.78,1.28 -1.97,1.97 -3.38,2.33 -0.81,0.21 -1.64,0.27 -2.47,0.27 h -4.4 c -0.05,0 -0.11,0 -0.19,-0.01 z m 2.81,-2.01 c 0.97,-0.05 1.92,-0.03 2.85,-0.16 1.14,-0.16 1.96,-0.83 2.39,-1.92 0.3,-0.75 0.33,-1.53 0.22,-2.32 -0.2,-1.39 -1.1,-2.37 -2.48,-2.67 -0.97,-0.22 -1.95,-0.1 -2.93,-0.12 -0.01,0 -0.02,0.02 -0.04,0.03 -0.01,2.36 -0.01,4.72 -0.01,7.16 z"
   style="fill:#ffffff;fill-rule:nonzero"
   id="path6"
   inkscape:connector-curvature="0" />
                <path
   d="m 27.67,18.52 c 0.13,-0.33 0.26,-0.65 0.38,-0.96 1.35,-3.35 2.71,-6.71 4.06,-10.06 0.08,-0.19 0.17,-0.25 0.37,-0.25 0.93,0.01 1.86,0.01 2.8,0 0.14,0 0.22,0.03 0.28,0.17 1.62,3.65 3.24,7.3 4.86,10.95 0.02,0.04 0.04,0.09 0.06,0.16 -0.08,0.01 -0.14,0.02 -0.2,0.02 h -2.63 c -0.16,0 -0.22,-0.06 -0.27,-0.19 -0.25,-0.62 -0.52,-1.24 -0.77,-1.87 -0.05,-0.13 -0.12,-0.18 -0.27,-0.18 -1.56,0.01 -3.12,0.01 -4.68,0 -0.14,0 -0.21,0.04 -0.26,0.18 -0.23,0.63 -0.48,1.26 -0.71,1.89 -0.04,0.1 -0.07,0.17 -0.2,0.17 -0.91,-0.01 -1.82,0 -2.73,0 -0.01,-0.01 -0.03,-0.02 -0.09,-0.03 z m 8.04,-4.19 c -0.6,-1.46 -1.2,-2.89 -1.82,-4.38 -0.56,1.49 -1.1,2.92 -1.65,4.38 z"
   style="fill:#ffffff;fill-rule:nonzero"
   id="path8"
   inkscape:connector-curvature="0" />
                <path
   d="m 72.94,15.76 h 5.11 c -0.07,0.07 -0.1,0.12 -0.15,0.16 -1.12,1.12 -2.23,2.23 -3.35,3.34 -0.08,0.08 -0.2,0.14 -0.31,0.14 -1.58,0.01 -3.16,0.01 -4.74,0.01 -0.06,0 -0.12,-0.01 -0.2,-0.01 0,-0.08 -0.01,-0.14 -0.01,-0.2 v -4.73 c 0,-0.09 0.04,-0.21 0.1,-0.28 1.14,-1.15 2.28,-2.28 3.42,-3.42 0.02,-0.02 0.05,-0.05 0.11,-0.1 0.02,1.71 0.02,3.39 0.02,5.09 z"
   style="fill:#ffffff;fill-rule:nonzero"
   id="path10"
   inkscape:connector-curvature="0" />
            </g>
        </g>
    </g>
</svg>