<?xml version="1.0" encoding="UTF-8" standalone="no"?>
<!DOCTYPE svg PUBLIC "-//W3C//DTD SVG 1.1//EN" "http://www.w3.org/Graphics/SVG/1.1/DTD/svg11.dtd">
<svg width="100%" height="100%" viewBox="0 0 58 26" version="1.1" xmlns="http://www.w3.org/2000/svg" xmlns:xlink="http://www.w3.org/1999/xlink" xml:space="preserve" xmlns:serif="http://www.serif.com/" style="fill-rule:evenodd;clip-rule:evenodd;stroke-linejoin:round;stroke-miterlimit:2;">
    <g transform="matrix(0.877441,0,0,0.877441,28.7,12.9)">
        <g id="Police" transform="matrix(1,0,0,1,-55,-12.9)">
            <g id="LOGOS">
                <g>
                    <g>
                        <path d="M39.31,7.11C40.02,7.1 40.89,7.11 41.68,7.11C44.17,7.11 46.4,6.87 46.88,8.98C47.04,9.66 46.98,10.41 46.98,11.25C46.98,12.11 47,12.82 46.81,13.43C46.42,14.67 45.31,15.05 43.68,15.07C42.93,15.08 42.13,15.07 41.34,15.07C40.54,15.07 39.75,15.1 38.99,15.07C37.49,15.01 36.39,14.52 36.09,13.23C35.94,12.58 35.99,11.76 35.99,10.94C35.99,10.13 35.98,9.27 36.16,8.73C36.55,7.48 37.69,7.12 39.31,7.11ZM38.71,9.62C38.48,9.98 38.5,10.48 38.5,11.11C38.5,11.64 38.48,12.26 38.7,12.63C38.95,13.04 39.52,13.08 40.17,13.08L41.53,13.08C42.38,13.08 43.52,13.2 44.01,12.88C44.44,12.6 44.43,11.96 44.43,11.21C44.43,10.65 44.47,10.17 44.32,9.79C44.01,9.02 43.05,9.11 41.95,9.11C41.23,9.11 40.41,9.08 39.83,9.12C39.33,9.16 38.93,9.28 38.71,9.62Z" style="fill:white;"/>
                        <path d="M75.17,10.04L72.72,10.04C72.9,8.85 71.37,9.11 70.34,9.11C69.15,9.11 67.95,8.95 67.55,9.68C67.35,10.05 67.37,10.58 67.37,11.17C67.37,11.9 67.35,12.62 67.85,12.91C68.32,13.18 69.39,13.08 70.16,13.08L71.42,13.08C72.3,13.08 72.91,12.96 72.82,12L75.27,12C75.32,13.19 75.22,13.98 74.65,14.48C74.1,14.96 73.22,15.07 72.16,15.07L69.04,15.07C67.99,15.07 67.07,15.11 66.26,14.79C65.49,14.49 65.05,13.9 64.9,13.03C64.75,12.18 64.84,11.05 64.84,10C64.84,8.96 65.06,8.19 65.68,7.72C66.27,7.27 67.22,7.11 68.17,7.11C69.77,7.11 71.67,7.02 72.97,7.19C73.74,7.3 74.35,7.48 74.73,7.95C75.1,8.44 75.18,9.09 75.17,10.04Z" style="fill:white;"/>
                        <path d="M24.22,7.18L29.89,7.18C30.89,7.18 31.73,7.17 32.41,7.43C33.1,7.7 33.51,8.17 33.68,8.97C33.77,9.38 33.76,9.85 33.76,10.3C33.76,11.69 33.31,12.64 32.19,12.93C31.8,13.03 31.36,13.01 30.89,13.01L26.66,13.01C26.63,13.63 26.66,14.32 26.65,14.96C25.87,14.99 25.02,14.96 24.21,14.97C24.18,12.41 24.21,9.78 24.2,7.19C24.19,7.2 24.21,7.19 24.22,7.18ZM26.65,9.18L26.65,11.09L29.88,11.09C30.52,11.09 31,11.12 31.18,10.68C31.31,10.38 31.31,9.77 31.15,9.49C30.87,9 29.8,9.14 29,9.14L26.66,9.14C26.64,9.14 26.64,9.16 26.65,9.18Z" style="fill:white;"/>
                        <path d="M51.95,7.18C51.97,9.01 51.97,11.14 51.95,12.97C53.76,13 55.64,12.97 57.47,12.98L57.47,14.98C54.91,15 52.06,15 49.5,14.98C49.51,12.39 49.48,9.76 49.51,7.19C50.24,7.16 51.21,7.19 51.95,7.18Z" style="fill:white;"/>
                        <path d="M62.17,7.2L62.17,14.99C61.39,15.01 60.45,15.01 59.72,14.99C59.69,12.79 59.71,10.45 59.71,8.16C59.71,7.85 59.69,7.39 59.74,7.2C60.45,7.17 61.4,7.17 62.17,7.2Z" style="fill:white;"/>
                        <path d="M86.54,7.2C86.6,7.67 86.57,8.51 86.55,9.01C84.47,9 82.34,9.03 80.28,8.99C80.25,9.38 80.28,9.83 80.27,10.24C82.19,10.25 84.34,10.22 86.23,10.25L86.23,11.86L80.27,11.86L80.27,13.11L86.71,13.11L86.71,14.98C83.79,15 80.69,15 77.82,14.98C77.83,12.39 77.8,9.76 77.83,7.19C80.64,7.17 83.68,7.17 86.54,7.2Z" style="fill:white;"/>
                    </g>
                    <g>
                        <path d="M38.47,19.95L38.47,17.47L39.76,17.47L39.76,17.92L38.88,17.92L38.88,18.45L39.63,18.45L39.63,18.9L38.88,18.9L38.88,19.49L39.76,19.49L39.76,19.95L38.47,19.95Z" style="fill:white;fill-rule:nonzero;"/>
                        <path d="M44.52,19L44.52,19.95L44.11,19.95L44.11,19.01L43.49,17.47L43.93,17.47L44.32,18.51L44.72,17.47L45.15,17.47L44.52,19Z" style="fill:white;fill-rule:nonzero;"/>
                        <path d="M48.9,19.95L48.9,17.47L50.19,17.47L50.19,17.92L49.31,17.92L49.31,18.45L50.06,18.45L50.06,18.9L49.31,18.9L49.31,19.49L50.19,19.49L50.19,19.95L48.9,19.95Z" style="fill:white;fill-rule:nonzero;"/>
                        <path d="M55.93,19.95L55.52,19.95L55.19,18.31L54.86,19.95L54.45,19.95L53.95,17.47L54.35,17.47L54.67,19.09L55,17.47L55.4,17.47L55.73,19.1L56.06,17.47L56.46,17.47L55.93,19.95Z" style="fill:white;fill-rule:nonzero;"/>
                        <path d="M60.22,19.95L60.22,17.47L61.51,17.47L61.51,17.92L60.63,17.92L60.63,18.45L61.38,18.45L61.38,18.9L60.63,18.9L60.63,19.49L61.51,19.49L61.51,19.95L60.22,19.95Z" style="fill:white;fill-rule:nonzero;"/>
                        <path d="M65.24,19.95L65.9,17.47L66.43,17.47L67.09,19.95L66.68,19.95L66.55,19.45L65.79,19.45L65.66,19.95L65.24,19.95ZM65.89,19L66.42,19L66.15,17.98L65.89,19Z" style="fill:white;fill-rule:nonzero;"/>
                        <path d="M71.97,19.95L71.46,19.01L71.26,19.01L71.26,19.95L70.86,19.95L70.86,17.47L71.58,17.47C71.84,17.47 72.02,17.53 72.14,17.64C72.26,17.75 72.32,17.94 72.32,18.2C72.32,18.41 72.28,18.58 72.21,18.71C72.14,18.84 72.04,18.92 71.91,18.95L72.44,19.95L71.97,19.95ZM71.9,18.23C71.9,18.1 71.87,18.02 71.82,17.98C71.77,17.94 71.68,17.92 71.57,17.92L71.26,17.92L71.26,18.58L71.56,18.58C71.65,18.58 71.72,18.57 71.77,18.55C71.82,18.53 71.85,18.5 71.88,18.45C71.91,18.4 71.9,18.32 71.9,18.23Z" style="fill:white;fill-rule:nonzero;"/>
                    </g>
                </g>
            </g>
        </g>
    </g>
</svg>
