<?xml version="1.0" encoding="UTF-8" standalone="no"?>
<!DOCTYPE svg PUBLIC "-//W3C//DTD SVG 1.1//EN" "http://www.w3.org/Graphics/SVG/1.1/DTD/svg11.dtd">
<svg width="100%" height="100%" viewBox="0 0 58 26" version="1.1" xmlns="http://www.w3.org/2000/svg" xmlns:xlink="http://www.w3.org/1999/xlink" xml:space="preserve" xmlns:serif="http://www.serif.com/" style="fill-rule:evenodd;clip-rule:evenodd;stroke-linejoin:round;stroke-miterlimit:2;">
    <g transform="matrix(0.877441,0,0,0.877441,28.7,12.9)">
        <g id="OZ" transform="matrix(1,0,0,1,-55,-12.9)">
            <g id="LOGOS">
                <g>
                    <path d="M75.43,15.17C75.28,15.27 75.12,15.32 74.94,15.3C74.81,15.29 74.68,15.3 74.56,15.3L36.39,15.3C36.25,15.3 36.11,15.27 35.97,15.28C35.81,15.3 35.71,15.21 35.62,15.1L35.62,15.03C35.67,14.97 35.72,14.91 35.78,14.82L74.91,14.82C75.1,14.82 75.29,14.8 75.43,14.96L75.43,15.17Z" style="fill:white;fill-rule:nonzero;"/>
                    <path d="M35.62,16.15C35.65,16.09 35.68,16.03 35.72,15.95C35.78,15.93 35.86,15.9 35.93,15.89C36.17,15.88 36.42,15.87 36.66,15.87L74.75,15.87C74.98,15.87 75.22,15.87 75.42,16L75.42,16.21C75.38,16.25 75.34,16.3 75.3,16.34L35.8,16.34C35.74,16.3 35.68,16.25 35.61,16.21C35.62,16.2 35.62,16.18 35.62,16.15Z" style="fill:white;fill-rule:nonzero;"/>
                    <path d="M72.35,19.09C72.19,19.04 72.02,19.01 71.86,18.95C71.47,18.81 71.15,18.6 71.09,18.09C71.11,17.74 71.35,17.49 71.69,17.35C72.43,17.06 73.19,17.04 73.94,17.27C74.18,17.34 74.42,17.45 74.54,17.75C74.28,17.89 74.01,17.79 73.77,17.83C73.36,17.51 72.72,17.45 72.29,17.68C72.12,17.77 72.01,17.9 72.01,18.09C72.01,18.28 72.09,18.43 72.27,18.51C72.74,18.73 73.21,18.73 73.67,18.46C73.7,18.44 73.71,18.41 73.74,18.36L72.91,18.36C72.9,18.23 72.9,18.12 72.89,18.02C73.15,17.95 74.12,17.93 74.57,17.99C74.59,18.31 74.59,18.64 74.56,19L73.97,19C73.94,18.97 73.88,18.93 73.83,18.88C73.59,18.95 73.35,19.01 73.11,19.08C72.86,19.09 72.6,19.09 72.35,19.09Z" style="fill:white;fill-rule:nonzero;"/>
                    <path d="M51.99,19.09C51.83,19.05 51.66,19 51.5,18.96C51.24,18.89 51,18.78 50.81,18.58C50.53,18.29 50.52,17.95 50.8,17.65C50.98,17.46 51.2,17.34 51.45,17.27C52.04,17.11 52.64,17.1 53.24,17.22C53.41,17.25 53.57,17.34 53.73,17.41C53.87,17.47 53.98,17.58 54.05,17.77C53.76,17.79 53.51,17.81 53.26,17.83C52.7,17.43 52.02,17.45 51.6,17.89C51.59,17.93 51.58,17.99 51.58,18.05C51.57,18.38 51.65,18.5 51.95,18.6C52.31,18.72 52.68,18.71 53.04,18.57C53.12,18.5 53.19,18.43 53.29,18.33C53.54,18.35 53.8,18.38 54.09,18.4C54.05,18.62 53.9,18.74 53.74,18.81C53.52,18.91 53.28,18.96 53.05,19.03C53,19.05 52.95,19.07 52.9,19.09L51.99,19.09Z" style="fill:white;fill-rule:nonzero;"/>
                    <path d="M74.8,6.71C74.88,6.77 74.96,6.84 75.04,6.9C75.34,7.15 75.43,7.48 75.34,7.84C75.25,8.19 75.02,8.41 74.65,8.51C74.16,8.64 73.71,8.27 73.6,7.88C73.57,7.78 73.56,7.68 73.55,7.6C73.59,7.16 73.82,6.89 74.16,6.71L74.8,6.71ZM75.2,7.62C75.06,7.09 74.76,6.81 74.39,6.87C73.96,6.94 73.73,7.31 73.74,7.61C73.76,7.98 73.98,8.27 74.32,8.32C74.79,8.38 75.06,8.16 75.2,7.62Z" style="fill:white;fill-rule:nonzero;"/>
                    <path d="M61.49,12.57L72.18,12.57C72.79,12.57 72.95,12.7 73.11,13.29C72.98,13.86 72.75,14.05 72.17,14.05L57.66,14.05C57.47,14.05 57.29,14.02 57.12,13.93C56.67,13.69 56.61,12.98 57.09,12.68C57.16,12.64 57.23,12.6 57.31,12.57C58.38,12.16 59.45,11.74 60.53,11.33C61.72,10.87 62.92,10.43 64.11,9.97C65.39,9.48 66.67,8.99 67.95,8.5C68.01,8.48 68.07,8.44 68.2,8.38L57.7,8.38C57.54,8.38 57.37,8.37 57.22,8.33C56.85,8.23 56.64,7.91 56.68,7.54C56.72,7.18 57.01,6.91 57.39,6.89L72.32,6.89C72.73,6.9 72.96,7.14 73.05,7.47C73.13,7.8 72.95,8.15 72.62,8.3C72.39,8.41 72.14,8.49 71.91,8.58C70.48,9.13 69.04,9.67 67.61,10.22C65.92,10.87 64.22,11.51 62.53,12.16C62.2,12.3 61.87,12.42 61.49,12.57Z" style="fill:white;fill-rule:nonzero;"/>
                    <path d="M46.36,6.91L50.77,6.91C51.95,6.9 52.92,7.35 53.69,8.23C54.1,8.69 54.34,9.24 54.46,9.85C54.68,11.05 54.32,12.06 53.5,12.92C52.91,13.54 52.16,13.92 51.29,14C50.85,14.04 50.41,14.06 49.97,14.06C47.28,14.07 44.58,14.07 41.89,14.06C40.81,14.06 39.86,13.68 39.11,12.89C37.79,11.52 37.82,9.41 39.09,8.09C39.85,7.3 40.77,6.91 41.86,6.91L46.36,6.91ZM46.29,12.51L50.8,12.51C51.3,12.51 51.74,12.36 52.14,12.08C52.99,11.47 53.22,10.37 52.74,9.54C52.3,8.77 51.61,8.41 50.75,8.4C47.8,8.39 44.85,8.39 41.9,8.4C41.39,8.4 40.92,8.56 40.5,8.85C39.65,9.42 39.44,10.56 39.88,11.36C40.29,12.11 40.94,12.5 41.78,12.51C43.28,12.53 44.78,12.51 46.29,12.51Z" style="fill:white;fill-rule:nonzero;"/>
                    <path d="M55.27,11.22C55.02,10.86 55.2,10.44 55.14,10.09C55.24,9.86 55.4,9.79 55.6,9.79L56.49,9.79C56.57,9.86 56.66,9.94 56.74,10.01L56.74,11.05C56.67,11.26 56.48,11.3 56.3,11.31C55.96,11.33 55.62,11.35 55.27,11.22Z" style="fill:white;fill-rule:nonzero;"/>
                    <path d="M39.37,19.02L38.46,19.02C38.18,18.93 38.29,18.55 37.99,18.41L37.19,18.41C37.08,18.58 37.2,18.79 37.11,19C36.84,19.06 36.56,19.03 36.26,19.01L36.26,17.19C37.03,17.19 37.79,17.15 38.54,17.22C38.8,17.24 39.07,17.34 39.19,17.64C39.2,17.94 39,18.06 38.72,18.14C39.12,18.3 39.04,18.74 39.37,19.02ZM37.18,17.97L37.69,17.97C37.81,17.97 37.92,17.97 38.04,17.96C38.18,17.96 38.29,17.91 38.33,17.77C38.17,17.57 38.3,17.61 37.36,17.62C37.31,17.62 37.25,17.63 37.18,17.64L37.18,17.97Z" style="fill:white;fill-rule:nonzero;"/>
                    <path d="M65.98,18.32C65.95,17.92 65.93,17.59 65.9,17.24C66.18,17.14 66.44,17.2 66.7,17.19C66.78,17.43 66.79,18.62 66.72,19L65.95,19C65.52,18.65 65.08,18.3 64.59,17.91C64.61,18.29 64.63,18.63 64.66,19L63.82,19C63.69,18.72 63.77,18.42 63.76,18.12C63.75,17.82 63.76,17.52 63.76,17.2L64.64,17.2C65.04,17.55 65.49,17.91 65.98,18.32Z" style="fill:white;fill-rule:nonzero;"/>
                    <path d="M44.44,17.2L45.43,17.2C45.84,17.78 46.26,18.36 46.7,18.98C46.37,19.08 46.08,19.01 45.77,19.03C45.68,18.92 45.6,18.81 45.51,18.69L44.39,18.69C44.31,18.8 44.23,18.9 44.14,19.02C43.84,19.04 43.54,19.05 43.19,19C43.63,18.38 44.03,17.8 44.44,17.2ZM44.65,18.24L45.26,18.24C45.15,18.05 45.06,17.89 44.94,17.68C44.84,17.88 44.75,18.04 44.65,18.24Z" style="fill:white;fill-rule:nonzero;"/>
                    <path d="M59.25,17.21L59.25,19.01L58.41,19.01C58.34,18.78 58.32,17.83 58.38,17.23C58.66,17.16 58.94,17.19 59.25,17.21Z" style="fill:white;fill-rule:nonzero;"/>
                    <path d="M74.34,7.75C74.32,7.87 74.31,7.97 74.3,8.09C74.24,8.1 74.19,8.1 74.12,8.11C74.07,7.78 74.09,7.46 74.1,7.13C74.35,7.04 74.57,7.06 74.79,7.15C74.92,7.32 74.9,7.48 74.76,7.64C74.86,7.76 74.92,7.91 74.84,8.08C74.8,8.1 74.75,8.1 74.69,8.11C74.66,8.01 74.63,7.91 74.6,7.79C74.52,7.78 74.44,7.77 74.34,7.75ZM74.33,7.56C74.45,7.53 74.54,7.52 74.63,7.5L74.63,7.3L74.33,7.3L74.33,7.56Z" style="fill:white;fill-rule:nonzero;"/>
                </g>
            </g>
        </g>
    </g>
</svg>
