<?xml version="1.0" encoding="UTF-8" standalone="no"?>
<!DOCTYPE svg PUBLIC "-//W3C//DTD SVG 1.1//EN" "http://www.w3.org/Graphics/SVG/1.1/DTD/svg11.dtd">
<svg width="100%" height="100%" viewBox="0 0 255 80" version="1.1" xmlns="http://www.w3.org/2000/svg" xmlns:xlink="http://www.w3.org/1999/xlink" xml:space="preserve" xmlns:serif="http://www.serif.com/" style="fill-rule:evenodd;clip-rule:evenodd;stroke-linejoin:round;stroke-miterlimit:2;">
    <g transform="matrix(1.91492,0,0,1.91492,127.5,40)">
        <g transform="matrix(0.88964,0,0,0.88964,1.53908,3.48918)">
            <g transform="matrix(1,0,0,1,-100,-29.165)">
                <g id="LOGOS">
                    <g>
                        <path d="M47.17,28.73C47.95,29.69 49.05,30.38 50.34,30.68C49.46,30.18 48.62,29.7 47.83,29.16C47.6,29.02 47.4,28.88 47.17,28.73M56.25,28.79L56.25,28.56L54.31,26.88L54.08,26.88C53.55,27.47 52.72,27.92 51.8,27.92C50.36,27.92 49.23,26.81 49.23,25.3C49.23,23.78 50.36,22.68 51.8,22.68C52.72,22.68 53.55,23.13 54.08,23.72L54.31,23.72L56.25,22.04L56.25,21.81C55.23,20.56 53.63,19.75 51.82,19.75C48.49,19.75 45.96,22.13 45.96,25.31C45.96,25.43 45.99,25.55 46,25.67C47.36,26.6 48.57,27.35 49.61,28.04C51.1,28.99 52.31,29.87 53.3,30.68C54.53,30.35 55.54,29.66 56.25,28.79" style="fill:white;fill-rule:nonzero;"/>
                        <path d="M63.51,23.69C63.51,24.4 62.99,24.75 62.39,24.75L60.9,24.75L60.9,22.57L62.39,22.57C63,22.57 63.51,22.97 63.51,23.69M67.49,30.15L67,28.04L66.82,27.92C66.72,27.97 66.64,28.04 66.4,28.04C66.03,28.04 65.8,27.64 65.61,27.33C65.29,26.83 65.03,26.57 64.8,26.45C65.98,25.92 66.77,24.93 66.77,23.51C66.77,21.31 65.28,19.93 62.51,19.93L57.7,19.93L57.7,30.66L60.9,30.66L60.9,26.9L61.19,26.9C61.9,26.9 62.81,28.45 63.23,29.14C64.1,30.54 64.8,30.86 66.05,30.86C66.63,30.86 67.12,30.65 67.41,30.38L67.49,30.15Z" style="fill:white;fill-rule:nonzero;"/>
                        <path d="M76.6,25.29C76.6,26.82 75.43,27.91 73.99,27.91C72.55,27.91 71.38,26.82 71.38,25.29C71.38,23.76 72.55,22.67 73.99,22.67C75.44,22.67 76.6,23.76 76.6,25.29M79.87,25.29C79.87,22.1 77.35,19.73 74,19.73C70.65,19.73 68.13,22.11 68.13,25.29C68.13,28.48 70.65,30.85 74,30.85C77.35,30.86 79.87,28.46 79.87,25.29" style="fill:white;fill-rule:nonzero;"/>
                        <path d="M95.91,19.93L92.85,19.93L90.96,25.87L88.95,19.93L87.01,19.93L85.02,25.84L83.13,19.93L80.07,19.93L79.92,20.18L83.84,30.66L85.78,30.66L87.98,24.82L90.2,30.66L92.14,30.66L96.05,20.18L95.91,19.93Z" style="fill:white;fill-rule:nonzero;"/>
                        <path d="M104.52,25.29C104.52,27.04 103.5,28.01 102.09,28.01L100.52,28.01L100.52,22.56L102.09,22.56C103.5,22.57 104.52,23.54 104.52,25.29M107.79,25.28C107.79,22.08 105.67,19.93 102.22,19.93L97.32,19.93L97.32,30.66L102.22,30.66C105.67,30.66 107.79,28.51 107.79,25.28" style="fill:white;fill-rule:nonzero;"/>
                        <path d="M124.76,22.57L127.96,22.57L127.96,19.93L118.35,19.93L118.35,22.57L121.55,22.57L121.55,30.66L124.76,30.66L124.76,22.57Z" style="fill:white;fill-rule:nonzero;"/>
                        <path d="M134.94,23.69C134.94,24.4 134.42,24.75 133.82,24.75L132.33,24.75L132.33,22.57L133.82,22.57C134.42,22.57 134.94,22.97 134.94,23.69M138.21,23.51C138.21,21.31 136.72,19.93 133.95,19.93L129.13,19.93L129.13,30.66L132.33,30.66L132.33,26.9L133.09,26.9L135.08,30.66L138.27,30.66L138.42,30.41L136.28,26.43C137.43,25.89 138.21,24.91 138.21,23.51" style="fill:white;fill-rule:nonzero;"/>
                        <rect x="140.15" y="19.93" width="3.2" height="10.73" style="fill:white;"/>
                        <path d="M151.47,24.73L155.1,20.18L154.95,19.93L151.54,19.93L148.58,23.74L148.58,19.93L145.37,19.93L145.37,30.66L148.58,30.66L148.58,27.36L149.16,26.66L151.88,30.66L155.23,30.66L155.37,30.41L151.47,24.73Z" style="fill:white;fill-rule:nonzero;"/>
                        <path d="M164.26,22.57L164.26,19.93L156.25,19.93L156.25,30.66L164.31,30.66L164.31,28.02L159.45,28.02L159.45,26.53L163.11,26.53L163.11,24.06L159.45,24.06L159.45,22.57L164.26,22.57Z" style="fill:white;fill-rule:nonzero;"/>
                        <path d="M113.21,30.79C115.56,30.79 117.59,29.64 117.59,27.41C117.59,24.98 115.54,24.36 113.72,23.83C113.01,23.62 112.28,23.37 112.28,22.84C112.28,22.46 112.69,22.23 113.3,22.23C114.35,22.23 115.24,22.89 115.69,23.32L115.92,23.32L117.42,21.5L117.42,21.27C116.63,20.36 115.01,19.67 113.23,19.67C110.74,19.67 109.01,21.02 109.01,22.99C109.01,25.1 110.92,26.03 112.54,26.49C113.59,26.79 114.31,26.84 114.31,27.41C114.31,27.82 113.81,28.07 113.03,28.07C112.04,28.07 110.85,27.43 110.26,26.85L110.03,26.85L108.54,28.73L108.54,28.96C109.5,30.03 111.22,30.79 113.21,30.79" style="fill:white;fill-rule:nonzero;"/>
                        <path d="M57.97,40.65C57.19,38.86 55.64,36.57 49.53,33.29C46.71,31.71 41.9,29.28 37.57,24.67C37.96,26.34 39.97,30 48.61,34.57C51.01,35.88 55.06,37.12 57.97,40.65" style="fill:white;fill-rule:nonzero;"/>
                        <path d="M57.58,37.58C56.84,35.47 55.51,32.76 49.21,28.74C46.14,26.71 41.63,24.17 35.7,17.68C36.12,19.43 38,23.98 47.45,29.88C50.55,32 54.56,33.31 57.58,37.58" style="fill:white;fill-rule:nonzero;"/>
                    </g>
                </g>
            </g>
        </g>
    </g>
</svg>
