<?xml version="1.0" encoding="UTF-8" standalone="no"?>
<!DOCTYPE svg PUBLIC "-//W3C//DTD SVG 1.1//EN" "http://www.w3.org/Graphics/SVG/1.1/DTD/svg11.dtd">
<svg width="100%" height="100%" viewBox="0 0 165 80" version="1.1" xmlns="http://www.w3.org/2000/svg" xmlns:xlink="http://www.w3.org/1999/xlink" xml:space="preserve" xmlns:serif="http://www.serif.com/" style="fill-rule:evenodd;clip-rule:evenodd;stroke-linejoin:round;stroke-miterlimit:2;">
    <g transform="matrix(1.64721,0,0,1.64721,-24.5687,-9.95164)">
        <g id="TOMMY-HILFIGER" serif:id="TOMMY HILFIGER">
            <g id="LOGOS">
                <g>
                    <g>
                        <g>
                            <rect x="40.88" y="14.47" width="48.24" height="31.71"/>
                            <path d="M88.85,14.74L88.85,45.91L41.15,45.91L41.15,14.74L88.85,14.74M89.39,14.2L40.61,14.2L40.61,46.45L89.39,46.45L89.39,14.2Z" style="fill:white;fill-rule:nonzero;"/>
                        </g>
                        <rect x="65" y="22.45" width="23.85" height="15.56" style="fill:rgb(147,149,152);"/>
                        <rect x="41.15" y="22.45" width="23.85" height="15.56" style="fill:white;"/>
                    </g>
                    <path d="M48.14,17.14L46.88,17.14L46.88,20.26L46.62,20.26L46.62,17.14L45.37,17.14L45.37,16.92L48.14,16.92L48.14,17.14ZM57,18.6C57,19.43 56.35,20.07 55.52,20.07C54.68,20.07 54.03,19.43 54.03,18.6C54.03,17.77 54.69,17.13 55.52,17.13C56.35,17.12 57,17.76 57,18.6ZM57.28,18.6C57.28,17.64 56.5,16.89 55.51,16.89C54.52,16.89 53.75,17.64 53.75,18.6C53.75,19.56 54.52,20.31 55.51,20.31C56.5,20.31 57.28,19.56 57.28,18.6ZM66.27,16.93L66.53,16.93L66.53,20.27L66.27,20.27L66.27,17.3L66.26,17.3L65,18.87L63.74,17.31L63.73,17.31L63.73,20.27L63.47,20.27L63.47,16.93L63.73,16.93L65,18.48L66.27,16.93ZM75.43,16.93L75.69,16.93L75.69,20.27L75.43,20.27L75.43,17.3L75.42,17.3L74.16,18.86L72.9,17.3L72.89,17.3L72.89,20.26L72.63,20.26L72.63,16.92L72.89,16.92L74.16,18.47L75.43,16.93ZM83.34,18.47L83.34,20.26L83.08,20.26L83.08,18.47L81.78,16.92L82.09,16.92L83.21,18.24L84.32,16.92L84.63,16.92L83.34,18.47ZM48.13,43.53L47.87,43.53L47.87,41.95L45.64,41.95L45.64,43.53L45.38,43.53L45.38,40.2L45.64,40.2L45.64,41.74L47.87,41.74L47.87,40.2L48.13,40.2L48.13,43.53ZM52.12,43.53L51.86,43.53L51.86,40.2L52.12,40.2L52.12,43.53ZM56.52,43.32L58.17,43.32L58.17,43.54L56.26,43.54L56.26,40.2L56.52,40.2L56.52,43.32ZM63.31,40.41L61.85,40.41L61.85,41.68L63.17,41.68L63.17,41.89L61.85,41.89L61.85,43.53L61.59,43.53L61.59,40.2L63.31,40.2L63.31,40.41ZM67.81,43.53L67.55,43.53L67.55,40.2L67.81,40.2L67.81,43.53ZM74.35,40.73C73.94,40.5 73.57,40.39 73.17,40.39C72.32,40.39 71.7,41.02 71.7,41.86C71.7,42.61 72.19,43.33 73.25,43.33C73.64,43.33 73.9,43.26 74.17,43.12L74.17,42.22L73.46,42.22L73.46,42L74.43,42L74.43,43.28C74.03,43.47 73.63,43.56 73.24,43.56C72.2,43.56 71.42,42.83 71.42,41.84C71.42,40.86 72.18,40.14 73.21,40.14C73.59,40.14 73.89,40.21 74.36,40.42L74.36,40.73L74.35,40.73ZM79.03,40.41L77.47,40.41L77.47,41.75L78.99,41.75L78.99,41.97L77.47,41.97L77.47,43.33L79.07,43.33L79.07,43.55L77.21,43.55L77.21,40.2L79.03,40.2L79.03,40.41ZM82.37,40.41L82.91,40.41C83.52,40.41 83.79,40.68 83.79,41.06C83.79,41.46 83.51,41.72 82.92,41.72L82.37,41.72L82.37,40.41ZM82.11,40.2L82.11,43.54L82.37,43.54L82.37,41.94L82.82,41.94C83.22,41.94 83.35,41.99 83.75,42.63L84.33,43.55L84.63,43.55L83.88,42.39C83.72,42.16 83.59,41.96 83.43,41.88C83.86,41.72 84.07,41.45 84.07,41.07C84.07,40.62 83.78,40.21 82.96,40.21L82.11,40.21L82.11,40.2Z" style="fill:white;fill-rule:nonzero;"/>
                </g>
            </g>
        </g>
    </g>
</svg>
