<?xml version="1.0" encoding="UTF-8" standalone="no"?>
<svg
   id="Layer_1"
   viewBox="0 0 888.73 300.32998"
   version="1.1"
   sodipodi:docname="TeamViewer_Logo_White_RGB_cropped.svg"
   inkscape:version="1.2.2 (b0a8486541, 2022-12-01)"
   width="888.72998"
   height="300.32999"
   xmlns:inkscape="http://www.inkscape.org/namespaces/inkscape"
   xmlns:sodipodi="http://sodipodi.sourceforge.net/DTD/sodipodi-0.dtd"
   xmlns="http://www.w3.org/2000/svg"
   xmlns:svg="http://www.w3.org/2000/svg">
  <defs
     id="defs33" />
  <sodipodi:namedview
     id="namedview31"
     pagecolor="#ffffff"
     bordercolor="#666666"
     borderopacity="1.0"
     inkscape:pageshadow="2"
     inkscape:pageopacity="0.0"
     inkscape:pagecheckerboard="true"
     showgrid="false"
     inkscape:zoom="1.0562533"
     inkscape:cx="475.26479"
     inkscape:cy="-58.22467"
     inkscape:window-width="2560"
     inkscape:window-height="1371"
     inkscape:window-x="0"
     inkscape:window-y="0"
     inkscape:window-maximized="1"
     inkscape:current-layer="Layer_1"
     width="888.72998px"
     height="136.33px"
     inkscape:showpageshadow="2"
     inkscape:deskcolor="#d1d1d1" />
  <g
     id="g848"
     transform="translate(25.574976,95.046079)">
    <g
       id="g24"
       style="fill:#ffffff;fill-opacity:1">
      <path
         d="M 524.08,35.45 V 99.4 h 18.14 V 35.45 Z m 9.14,-25.73 c 7.21,0 10.68,4.76 10.68,10.81 0,6.05 -3.47,10.42 -10.68,10.42 -7.21,0 -10.81,-4.63 -10.81,-10.42 0,-5.79 3.6,-10.81 10.81,-10.81 z"
         id="path2"
         style="fill:#ffffff;fill-opacity:1" />
      <path
         d="M 787.63,99.4 V 47.54 L 783.9,35.45 h 17.37 L 805,46.39 c 3.09,-7.85 9.39,-12.22 18.53,-12.22 2.7,0 5.28,0.51 7.21,1.16 v 17.5 c -2.06,-0.64 -4.37,-1.03 -6.95,-1.03 -12.61,0 -18.14,8.75 -18.14,20.59 v 27.02 h -18.01 z"
         id="path4"
         style="fill:#ffffff;fill-opacity:1" />
      <polygon
         points="613.15,35.45 633.22,35.45 645.44,82.15 656.51,45.87 653.29,35.45 672.46,35.45 685.46,82.28 697.42,35.45 716.34,35.45 696.65,99.4 674.52,99.4 664.87,68.9 654.84,99.4 632.58,99.4 "
         id="polygon6"
         style="fill:#ffffff;fill-opacity:1" />
      <polygon
         points="455.37,12.16 475.44,79.32 496.54,12.16 516.36,12.16 486.38,99.4 464.12,99.4 434.27,12.16 "
         id="polygon8"
         style="fill:#ffffff;fill-opacity:1" />
      <path
         d="m 778.97,66.46 c 0,-19.04 -11.71,-32.3 -29.72,-32.3 -20.72,0 -33.07,15.44 -33.07,33.58 0,18.14 12.22,32.81 32.17,32.81 13.51,0 22.13,-4.5 28.18,-12.22 l -11.84,-9.91 c -3.6,4.63 -8.49,7.46 -15.05,7.46 -8.88,0 -14.02,-5.15 -15.18,-13.25 h 44.26 c 0.13,-2.06 0.26,-3.99 0.26,-6.18 z M 760.7,61.31 h -26.25 c 1.16,-8.11 5.28,-12.87 14.15,-12.87 8.11,0 11.97,5.92 12.09,12.87 z"
         id="path10"
         style="fill:#ffffff;fill-opacity:1" />
      <path
         d="m 612.69,66.46 c 0,-19.04 -11.58,-32.3 -29.72,-32.3 -20.46,0 -32.81,15.44 -32.81,33.58 0,18.14 11.97,32.81 32.17,32.81 13.51,0 22,-4.5 28.18,-12.22 l -11.84,-9.91 c -3.73,4.63 -8.49,7.46 -15.05,7.46 -8.88,0 -14.15,-5.15 -15.31,-13.25 h 44.13 c 0.26,-2.06 0.26,-3.99 0.26,-6.18 z M 594.55,61.31 H 568.3 c 1.16,-8.11 5.4,-12.87 14.28,-12.87 7.98,0 11.84,5.92 11.97,12.87 z"
         id="path12"
         style="fill:#ffffff;fill-opacity:1" />
      <g
         id="g22"
         style="fill:#ffffff;fill-opacity:1">
        <polygon
           points="206.48,12.05 206.48,28.65 177.28,28.65 177.28,99.29 158.36,99.29 158.36,28.65 129.03,28.65 129.03,12.05 "
           id="polygon14"
           style="fill:#ffffff;fill-opacity:1" />
        <path
           d="m 255.64,66.35 c 0,-19.04 -12.09,-32.3 -30.11,-32.3 -20.59,0 -32.81,15.44 -32.81,33.58 0,18.14 12.09,32.81 32.3,32.81 13.51,0 22.13,-4.5 28.05,-12.22 l -11.84,-9.91 c -3.47,4.63 -8.49,7.46 -15.18,7.46 -8.75,0 -13.9,-5.15 -14.93,-13.25 h 44.13 c 0.13,-2.06 0.39,-3.99 0.39,-6.18 z M 211.12,61.2 c 1.03,-8.11 5.28,-12.87 14.03,-12.87 8.24,0 11.97,5.92 12.22,12.87 z"
           id="path16"
           style="fill:#ffffff;fill-opacity:1" />
        <path
           d="M 328.85,87.06 V 35.34 h -15.83 v 7.08 h -0.13 c -4.5,-4.89 -10.94,-8.36 -19.56,-8.36 -18.4,0 -31.01,14.28 -31.01,33.45 0,19.17 12.61,32.94 31.01,32.94 8.62,0 15.05,-2.83 19.56,-7.72 h 0.13 l 2.06,6.56 h 17.76 l -3.99,-12.22 z m -32.04,-1.54 c -10.29,0 -15.7,-8.23 -15.7,-18.4 0,-9.14 5.28,-18.01 15.7,-18.01 10.42,0 15.83,9.01 15.83,18.01 0,10.16 -4.5,18.4 -15.83,18.4 z"
           id="path18"
           style="fill:#ffffff;fill-opacity:1" />
        <path
           d="m 372.21,50.52 c -7.08,0 -10.94,5.53 -10.94,13.64 V 99.29 H 343.13 V 47.43 l -3.86,-12.09 h 17.76 l 3.09,9.91 c 2.96,-6.3 8.88,-11.19 18.53,-11.19 7.72,0 13.12,3.73 16.21,9.78 4.25,-5.66 10.81,-9.78 20.46,-9.78 15.18,0 20.84,11.32 20.84,27.02 v 38.21 h -18.14 v -35.9 c 0,-8.62 -1.93,-12.87 -8.49,-12.87 -6.56,0 -10.81,5.53 -10.81,13.64 V 99.42 H 380.71 V 63.39 c 0,-8.62 -2.06,-12.87 -8.49,-12.87 z"
           id="path20"
           style="fill:#ffffff;fill-opacity:1" />
      </g>
    </g>
    <path
       d="M 94.86,0 H 16.48 C 7.38,0 0,7.38 0,16.48 v 78.38 c 0,9.1 7.38,16.48 16.48,16.48 h 78.38 c 9.1,0 16.48,-7.38 16.48,-16.48 V 16.48 C 111.34,7.38 103.96,0 94.86,0 Z M 55.67,100.42 c -24.72,0 -44.76,-20.04 -44.76,-44.76 0,-24.72 20.04,-44.75 44.76,-44.75 24.72,0 44.76,20.04 44.76,44.76 0,24.72 -20.04,44.76 -44.76,44.76 z"
       id="path26"
       style="fill:#ffffff;fill-opacity:1;stroke:#000000;stroke-opacity:1" />
    <polygon
       points="46.64,71.46 43.47,61.5 67.87,61.5 64.69,71.46 93.57,55.66 64.69,39.88 67.87,49.83 43.47,49.83 46.64,39.88 17.76,55.67 "
       id="polygon28"
       style="fill:#ffffff;fill-opacity:1" />
  </g>
</svg>
